<svg width="1920" height="1080" viewBox="0 0 1920 1080" fill="none" xmlns="http://www.w3.org/2000/svg">
<path d="M232.739 482.286L196.607 530.379L145.041 470.521V598.987L86.279 677.192V392.786C86.279 391.232 86.2529 389.743 86.2529 388.176H151.674L232.739 482.286Z" fill="#101828"/>
<path d="M402.809 414.697V689.245C402.809 689.793 402.782 690.342 402.743 690.877H334.854L264.967 609.747L299.923 560.283L344.047 611.523V497.852L402.809 414.697Z" fill="#101828"/>
<path d="M421.546 388.176L402.808 414.697L344.046 497.852L299.923 560.283L264.966 609.747L207.641 690.877H170.491L245.901 587.613L281.485 538.88L367.695 420.822L372.461 414.293H321.051L316.18 420.822L252.914 505.713L216.925 553.976L114.889 690.877H76.002L86.2787 677.192L145.04 598.987L196.607 530.379L232.739 482.286L303.449 388.176H421.546Z" fill="url(#paint0_linear_452_937)"/>
<path d="M519.192 634.878V444.176H557.277L634.002 547.033C635.114 548.33 636.504 550.183 638.172 552.593C639.84 554.816 641.415 557.04 642.898 559.264C644.381 561.488 645.4 563.249 645.956 564.546H647.346C647.346 561.396 647.346 558.338 647.346 555.372C647.346 552.222 647.346 549.442 647.346 547.033V444.176H686.542V634.878H648.458L570.064 529.519C568.211 526.925 566.265 524.052 564.227 520.902C562.188 517.751 560.705 515.342 559.779 513.674H558.389C558.389 516.454 558.389 519.234 558.389 522.014C558.389 524.608 558.389 527.11 558.389 529.519V634.878H519.192Z" fill="#101828"/>
<path d="M779.921 634.878L710.98 444.176H755.736L796.879 565.936C797.62 567.975 798.454 570.477 799.381 573.442C800.307 576.222 801.234 579.002 802.16 581.782C803.087 584.561 803.828 587.063 804.384 589.287H806.052C806.794 587.249 807.535 584.932 808.276 582.338C809.203 579.558 810.037 576.778 810.778 573.998C811.705 571.218 812.539 568.623 813.28 566.214L854.423 444.176H897.511L828.292 634.878H779.921Z" fill="#101828"/>
<path d="M921.79 634.878V444.176H963.21V634.878H921.79Z" fill="#101828"/>
<path d="M1079.63 638.214C1068.51 638.214 1057.94 637.102 1047.94 634.878C1037.93 632.654 1029.03 629.133 1021.25 624.314C1013.65 619.31 1007.63 613.102 1003.18 605.689C998.918 598.09 996.786 588.917 996.786 578.168C996.786 577.241 996.786 576.314 996.786 575.388C996.786 574.276 996.879 573.442 997.064 572.886H1038.21C1038.02 573.442 1037.93 574.183 1037.93 575.11C1037.93 576.036 1037.93 576.87 1037.93 577.612C1037.93 583.542 1039.5 588.546 1042.65 592.623C1045.99 596.7 1050.81 599.758 1057.11 601.797C1063.41 603.835 1070.73 604.855 1079.07 604.855C1084.45 604.855 1089.17 604.577 1093.25 604.021C1097.51 603.28 1101.22 602.353 1104.37 601.241C1107.7 599.944 1110.39 598.461 1112.43 596.793C1114.65 595.125 1116.23 593.179 1117.16 590.955C1118.27 588.731 1118.82 586.229 1118.82 583.45C1118.82 578.446 1117.16 574.368 1113.82 571.218C1110.67 568.067 1106.22 565.38 1100.48 563.156C1094.92 560.932 1088.62 558.894 1081.57 557.04C1074.53 555.187 1067.3 553.334 1059.89 551.481C1052.48 549.442 1045.25 547.033 1038.21 544.253C1031.16 541.288 1024.86 537.766 1019.3 533.689C1013.74 529.612 1009.3 524.423 1005.96 518.122C1002.62 511.821 1000.96 504.222 1000.96 495.326C1000.96 485.875 1002.9 477.72 1006.79 470.863C1010.87 464.006 1016.52 458.354 1023.75 453.906C1030.98 449.458 1039.32 446.215 1048.77 444.176C1058.22 441.952 1068.51 440.84 1079.63 440.84C1090.01 440.84 1099.83 441.952 1109.09 444.176C1118.36 446.215 1126.52 449.551 1133.56 454.184C1140.6 458.817 1146.07 464.655 1149.96 471.697C1154.04 478.74 1156.08 487.079 1156.08 496.716V500.052H1115.77V497.828C1115.77 492.825 1114.28 488.562 1111.32 485.041C1108.35 481.52 1104.18 478.74 1098.81 476.701C1093.43 474.663 1087.13 473.643 1079.91 473.643C1072.12 473.643 1065.45 474.385 1059.89 475.867C1054.52 477.35 1050.35 479.574 1047.38 482.539C1044.6 485.319 1043.21 488.655 1043.21 492.547C1043.21 496.994 1044.79 500.701 1047.94 503.666C1051.27 506.446 1055.72 508.948 1061.28 511.172C1067.03 513.211 1073.42 515.064 1080.46 516.732C1087.5 518.4 1094.73 520.253 1102.14 522.292C1109.56 524.33 1116.79 526.739 1123.83 529.519C1130.87 532.299 1137.17 535.82 1142.73 540.083C1148.29 544.16 1152.74 549.257 1156.08 555.372C1159.41 561.488 1161.08 568.809 1161.08 577.334C1161.08 591.975 1157.56 603.743 1150.52 612.639C1143.47 621.534 1133.84 628.021 1121.6 632.098C1109.37 636.175 1095.38 638.214 1079.63 638.214Z" fill="#101828"/>
<path d="M1194.08 634.878V444.176H1235.5V634.878H1194.08Z" fill="#101828"/>
<path d="M1366.65 638.214C1346.45 638.214 1329.03 634.6 1314.39 627.372C1299.75 620.144 1288.54 609.21 1280.75 594.569C1272.97 579.928 1269.08 561.581 1269.08 539.527C1269.08 517.102 1272.97 498.662 1280.75 484.207C1288.54 469.566 1299.75 458.724 1314.39 451.682C1329.03 444.454 1346.45 440.84 1366.65 440.84C1387.22 440.84 1404.74 444.454 1419.19 451.682C1433.83 458.724 1445.04 469.566 1452.83 484.207C1460.61 498.662 1464.5 517.102 1464.5 539.527C1464.5 561.581 1460.61 579.928 1452.83 594.569C1445.04 609.21 1433.83 620.144 1419.19 627.372C1404.74 634.6 1387.22 638.214 1366.65 638.214ZM1366.65 604.299C1375.73 604.299 1383.7 603.002 1390.56 600.407C1397.42 597.812 1403.16 593.92 1407.79 588.731C1412.43 583.542 1415.95 577.241 1418.36 569.828C1420.77 562.23 1421.97 553.612 1421.97 543.975V535.357C1421.97 525.535 1420.77 516.824 1418.36 509.226C1415.95 501.628 1412.43 495.326 1407.79 490.323C1403.16 485.133 1397.42 481.242 1390.56 478.647C1383.7 476.052 1375.73 474.755 1366.65 474.755C1357.76 474.755 1349.88 476.052 1343.02 478.647C1336.16 481.242 1330.42 485.133 1325.79 490.323C1321.15 495.326 1317.63 501.628 1315.22 509.226C1313 516.824 1311.89 525.535 1311.89 535.357V543.975C1311.89 553.612 1313 562.23 1315.22 569.828C1317.63 577.241 1321.15 583.542 1325.79 588.731C1330.42 593.92 1336.16 597.812 1343.02 600.407C1349.88 603.002 1357.76 604.299 1366.65 604.299Z" fill="#101828"/>
<path d="M1498.13 634.878V444.176H1536.22L1612.94 547.033C1614.05 548.33 1615.44 550.183 1617.11 552.593C1618.78 554.816 1620.35 557.04 1621.84 559.264C1623.32 561.488 1624.34 563.249 1624.9 564.546H1626.29C1626.29 561.396 1626.29 558.338 1626.29 555.372C1626.29 552.222 1626.29 549.442 1626.29 547.033V444.176H1665.48V634.878H1627.4L1549 529.519C1547.15 526.925 1545.2 524.052 1543.17 520.902C1541.13 517.751 1539.64 515.342 1538.72 513.674H1537.33C1537.33 516.454 1537.33 519.234 1537.33 522.014C1537.33 524.608 1537.33 527.11 1537.33 529.519V634.878H1498.13Z" fill="#101828"/>
<path d="M1689.08 634.878L1742.18 558.986L1692.98 488.655H1739.4L1767.2 532.577H1768.59L1796.67 488.655H1840.31L1790.83 558.708L1843.09 634.878H1797.5L1765.81 585.118H1764.42L1732.73 634.878H1689.08Z" fill="url(#paint1_linear_452_937)"/>
<defs>
<linearGradient id="paint0_linear_452_937" x1="388.284" y1="388.176" x2="166.129" y2="667.009" gradientUnits="userSpaceOnUse">
<stop stop-color="#4AF5A3"/>
<stop offset="1" stop-color="#1F5FFE"/>
</linearGradient>
<linearGradient id="paint1_linear_452_937" x1="1803.37" y1="519.998" x2="1713.28" y2="606.673" gradientUnits="userSpaceOnUse">
<stop stop-color="#4AF5A3"/>
<stop offset="1" stop-color="#1F5FFE"/>
</linearGradient>
</defs>
</svg>
